<svg version="1" xmlns="http://www.w3.org/2000/svg" width="4266.667" height="4266.667" viewBox="0 0 3200.000000 3200.000000"><path d="M2995 459.1c-71.7 3.1-187.9 17.8-273.5 34.5-92.5 18.1-154.2 45.4-180.1 79.7-9.3 12.3-8.6 9.8-32.5 123.2-52.6 250-94 442.4-107.4 498.5-13.3 55.5-32.3 146-75.6 359-10.5 51.4-21.9 106.2-25.5 121.8-13.2 58.1-15.4 70.8-15.4 90 0 20.6 4.4 33.4 14.9 44.1 15.7 16 45 25.2 93.6 29.2 18.2 1.5 64 .6 79.5-1.5 27.8-3.8 54.5-10.5 75.1-18.6 44.5-17.7 88.9-53.3 118.5-95.1 22.9-32.3 38.1-62.2 74.9-147.9 66.1-153.7 96.5-213.2 175.2-342 163.2-267.2 252.3-458.9 274.7-590.5 4-24 5-34.7 5-56 .1-29-3-47.3-11.2-66.3-5.4-12.5-11.8-21.7-22-31.3-20.7-19.7-47.9-28-100.7-30.9-20.4-1.1-40.6-1.1-67.5.1zM1695 685.6c-1.9.2-9.8.9-17.5 1.4-41.4 3.2-94.1 11.9-140 23-39.7 9.6-67.6 19.1-94 32-21.4 10.3-35.6 19.9-47.5 32-14.6 14.7-18.9 23.2-24.5 48.2-6.4 29-25.7 130.7-52 275.3-6.9 37.9-13.2 71.5-14 74.5-5.4 20.1-29.8 146-50.4 259.6-16.4 90.7-26.1 150.8-26.1 162.4 0 4.6-38.3 211.8-39.2 212.5-.2.1-21.2 5.4-46.8 11.9-25.6 6.4-77.7 19.6-115.8 29.3-38.1 9.7-69.5 17.4-69.8 17-.3-.3 2.2-19.6 5.6-42.9 5.8-39.8 6.2-43.1 5.7-55.8-.3-7.4-1.2-16.8-2.1-20.8-15-69-77.4-108-167.6-104.9-20 .7-29.3 1.7-50.5 5.2-73.8 12.3-163.1 44.7-228.5 83-44 25.7-76.5 53.5-86.5 73.9-2.5 5.2-6.2 25-35.5 190.6-14 79-15.4 89-16.9 120.5-3.1 61.3 9 108.1 34.8 135.7 14.2 15.1 26.2 22.5 50.6 30.8 36.7 12.5 77.2 20.2 127.5 24.1 20 1.6 82.4 1.6 105 .1 57.5-4 113-11.4 161.6-21.7 30.2-6.4 244.7-49.6 250.9-50.6 3.3-.5 13.9-1.8 23.5-3 67.1-8 187.1-34.1 271-59 76.7-22.8 133.4-44.1 183.5-68.9 26-12.9 38.1-21.3 55-38.4 29.6-29.8 47.7-66 61.9-123.6 7.9-32 22.5-104.2 28.1-139 21.2-131.2 99-654 147-988l10.5-72.5-6.7-6.7c-25.3-25.5-65.6-41.2-119.1-46.3-13.8-1.3-60.1-1.9-71.2-.9z"/><path d="M912.5 814.1c-75.3 4.3-174.1 24.2-231 46.6-29.4 11.6-53 25.3-68 39.5-15.8 14.9-21.1 24.5-27 48.3-9.4 38.8-36.8 184-68.6 364-4.6 25.8-8.7 47.3-9.3 47.7-.5.3-26.4 7-57.5 14.8-232 57.9-418.6 106.8-434.6 113.9-6.4 2.8-9.5 9.6-12 26.4-2 13.2-1.9 18.5.5 28.3 5.6 23.7 20.1 48.9 45.9 79.9 9.8 11.7 46.3 48.3 61.6 61.6 64.3 56 117.9 94.7 136.8 98.9 6.1 1.4 8.7.5 8.7-2.9 0-1.5 2.6-2 17.7-3.9 18.5-2.3 74.6-10.8 108.4-16.5l19.6-3.3 3.8-4.5c45.9-53 154.8-111 265.8-141.4 84.9-23.3 149.9-27.3 206.3-12.6 39.6 10.4 75.9 32.5 98.4 60 4.1 5 7.6 8.8 7.7 8.4.1-.5 1.1-6.1 2.2-12.7 1.1-6.5 2.2-12 2.3-12.1.2-.1 41.5-8.4 91.8-18.4 50.3-10 92.3-18.4 93.2-18.7 2-.6 3.4-6.9 4.3-19.9 2.3-32.9 32.3-202.9 63.1-357.8 5.3-26.4 9.4-48.1 9.1-48.3-.5-.5-49.6 11.2-129.2 30.7-73.8 18.1-66.5 16.5-66.5 14.5 0-.9 4.3-29.9 9.5-64.4 17.6-116.9 32.9-221 39-266.5l3.6-26.7-2.1-2.7c-1.1-1.5-4.9-5.1-8.3-8.1-37.5-32.6-100.4-46.9-185.2-42.1zM1946 1044c-13.1 1.1-48.2 4.8-48.6 5.3-.2.2-7.5 49.5-16.4 109.7-8.8 60.2-22 149.8-29.3 199-9 60.9-12.9 89.6-12.1 89.8 1.7.4 73.5-18.7 119.9-31.9 44.9-12.9 90.3-27 116.4-36.3 52.1-18.7 74.1-30.5 93.6-50 15.4-15.5 19.7-24.4 23-47 2-13.6 1.5-17.5-3.6-29.8-11.8-28.6-38.7-61.4-92.4-112.8-45.8-43.9-73.4-72.6-82-85.5-4-6-5.5-7.1-13-9.2-6.2-1.8-39.1-2.5-55.5-1.3zM1954 1654.7c-33.8 2.4-140.8 16.4-147.5 19.2-1.8.8-2.4 3.2-4.8 19.2-15.7 103.6-22.7 144.8-32.8 193.4-16.8 81.1-26.2 113.3-43.1 147-11.5 23.1-22.7 39.4-40.2 58.7-5.3 6-9.4 10.8-9.1 10.8 1.2 0 119.2-29.7 153.4-38.6 153.1-39.9 260-73.3 301.3-94 31.8-16 52.3-35.3 61.3-57.9 5.5-13.8 4.4-33.3-3-51-11.4-27.5-37.5-60.4-79.8-100.7-50.7-48.2-84.3-82.9-93-96.1-4.7-7.1-5.3-7.5-13.3-9.2-6.4-1.4-35.5-1.8-49.4-.8zM282 2030.2c-126.4 33.1-224.2 59.2-251.5 67.2-8.7 2.6-12.6 4.3-14.2 6-3.8 4.4-6.3 13.1-7.8 27.5-1.4 12.9-1.3 14.2.5 21.7 11.7 49.2 60.8 106.6 161 188.5 48.5 39.5 78.8 57.8 87.9 53 1.1-.7 2.1-2.1 2.1-3.1 0-1.7.7-2 4-2 6.2 0 30.4-2.8 46-5.4 7.7-1.2 14-2.2 14-2.1 0 .4-11.9 58.9-16.9 83-21.4 103.5-40.9 185.3-53.1 223-1.6 4.9-3.4 12.7-4.1 17.2-1 7.7-1 8.5 1.1 12.8 13.4 27.6 90.4 31.6 226.5 11.9 108-15.6 181-32.4 234-53.6 47.6-19.1 76.2-41.8 83.6-66.2 1.2-3.9 3.9-12.5 6-19.1 14-44.4 30.3-106.9 49.7-191.5 15.1-65.6 15.1-65.5 13.6-65.8-.8-.2-6 .6-11.6 1.7-36.2 7.2-84.4 13.7-131.3 17.7-25.5 2.1-100.2 3-124.7 1.5-59.7-3.8-111.9-13.9-155.8-30.3-24-8.9-40.7-19.4-57.5-36.3-27.1-27-42.9-62-50.2-111-2.2-15-2.6-73.4-.5-91 1.9-17 5.1-38.6 7.8-54.3 1.4-7.9 2.4-14.9 2.2-15.6-.2-.9-17.7 3.3-60.8 14.6zM2347 2035.7c-11.8.5-36.3 3.4-47 5.4-39 7.6-79.7 30.9-118.7 68.3-6.7 6.4-14.3 14.7-17 18.4-2.6 3.7-24.6 33.4-48.9 65.9-24.4 32.6-46.5 63-49.2 67.5-16.2 27-27.2 57.5-31.7 87.8-3 20.4-1.2 56.2 4.1 81 13.2 62 47.9 106.1 106.5 135.5 16.6 8.4 35.3 12 62.4 11.9 34.7 0 60-6 94-22.3 65-31.2 118.5-82.3 183.2-175.1 10-14.5 15.7-25 33.6-62.5 21.3-44.8 29.8-98.7 21.3-135.9-16.7-72.6-66.7-119-154.6-143.2-12.9-3.5-15.9-3.7-38-2.7zM1660 2116c-14.6 11.6-27.8 19.8-47.5 29.5-52.2 25.6-113.4 48.5-190.2 71.4-93.4 27.8-221.3 55.2-294.3 63.1-5.8.6-14.3 1.9-19 2.9l-8.5 1.7-1.7 8.4c-33.7 164.2-55.9 262-62.2 274-5.8 11-5.4 16.8 1.3 24.3 12.5 13.9 38.4 19.7 88 19.7 42.5 0 92.3-4.9 164.6-16.1 107.2-16.7 181.1-35.9 230-59.9 33.8-16.6 56.2-37.7 62-58.5.9-3.3 3.9-13 6.5-21.6 14.6-47 35.8-134.6 58.6-242.4 9.2-43.1 21.4-102.8 21.1-103.1-.1-.1-4 2.8-8.7 6.6z"/></svg>