<?xml version="1.0" encoding="UTF-8"?>
<svg width="960px" height="650px" viewBox="0 0 960 650" xmlns="http://www.w3.org/2000/svg" xmlns:xlink="http://www.w3.org/1999/xlink" version="1.1">
 <!-- Generated by Pixelmator Pro 2.0.8 -->
 <path id="Path" d="M367.316 324.244 C370.196 312.508 372.212 303.796 371.564 291.988 368.036 289.756 358.388 292.996 353.564 292.708 353.492 292.276 353.42 291.988 353.42 291.628 358.82 290.836 366.092 290.98 370.772 289.036 370.772 284.284 369.764 278.884 367.316 274.852 358.82 276.724 350.036 278.02 342.404 282.196 341.972 282.124 341.54 282.052 341.108 282.052 342.62 274.852 362.42 276.508 366.38 272.476 365.804 268.228 362.708 264.052 360.764 260.38 363.284 260.596 363.14 258.22 364.076 260.596 364.22 260.596 368.612 270.964 368.972 272.116 370.628 272.26 372.428 271.612 374.876 271.756 374.804 272.044 374.732 272.332 374.66 272.692 370.988 273.412 370.988 273.412 370.052 273.988 370.484 278.02 371.924 283.492 372.86 289.396 373.94 289.252 375.02 289.108 376.1 289.036 L376.1 289.756 C373.94 290.332 373.94 290.332 373.364 290.836 373.364 297.244 373.364 301.636 372.644 308.044 369.692 318.7 368.252 322.732 368.036 324.244 367.82 324.244 367.532 324.244 367.316 324.244 Z" fill="#b2b2b2" fill-opacity="1" stroke="none"/>
 <path id="Path-1" d="M417.572 591.724 C422.756 591.077 587.636 580.493 603.692 584.309 606.428 584.956 607.94 585.533 608.085 587.189 608.301 588.844 607.221 588.989 605.925 589.42 596.709 592.228 576.261 595.685 573.741 595.973 562.148 597.052 492.381 601.228 468.693 601.876 444.933 602.597 414.333 602.38 409.005 602.309 401.085 602.164 393.165 601.3 385.677 600.796 385.029 600.724 382.725 600.796 382.365 599.357 382.149 598.493 382.221 597.413 382.725 596.765 383.301 595.973 384.309 595.612 385.317 595.468 395.9 594.027 406.556 593.092 417.572 591.724 Z" fill="#b2b2b2" fill-opacity="1" stroke="none"/>
 <path id="Path-2" d="M276.236 421.948 C270.62 423.46 264.212 427.347 262.844 431.092 261.188 435.844 261.116 440.164 262.844 445.78 262.988 446.139 268.82 454.492 272.42 458.308 275.804 462.051 302.948 476.308 309.14 478.755 318.932 482.715 329.228 483.147 338.012 487.684 337.076 495.459 337.796 498.339 343.844 499.06 344.348 508.204 348.164 509.211 356.732 511.731 357.236 512.308 357.596 513.748 359.108 515.62 364.652 517.78 367.892 516.916 373.94 516.124 376.388 514.468 380.348 512.597 382.724 515.044 385.676 515.404 385.676 515.404 390.788 515.044 392.66 515.836 404.756 523.756 404.756 525.124 420.308 533.477 426.5 528.147 443.564 522.027 445.796 522.027 445.796 522.027 446.3 522.603 446.228 523.54 446.084 524.476 445.94 525.484 437.3 542.98 428.516 564.076 428.012 578.764 427.724 585.675 429.812 600.652 439.1 600.652 453.212 600.652 474.38 570.195 506.06 570.051 537.883 569.907 544.435 594.459 560.492 594.459 572.228 594.459 572.228 567.1 571.652 561.123 569.779 543.194 563.372 528.579 556.603 511.947 555.812 507.123 558.62 504.747 562.076 502.01 567.332 494.954 574.388 488.546 580.076 481.779 586.484 472.634 593.18 462.987 598.364 453.123 601.532 445.491 603.62 436.852 607.219 429.651 610.099 419.355 610.892 418.203 613.051 410.138 614.203 409.706 615.356 409.275 616.507 408.842 622.268 403.082 617.228 402.866 627.163 401.93 636.739 399.483 644.875 394.514 653.227 389.403 659.059 388.899 664.674 388.466 670.434 390.123 679.075 390.123 684.258 387.315 679.579 378.963 679.363 378.963 679.075 378.963 678.859 378.963 678.211 377.451 677.346 377.451 675.907 376.731 676.123 375.652 676.123 375.652 677.563 372.7 677.563 363.628 669.355 362.404 662.01 361.684 661.794 360.532 661.578 359.452 661.434 358.372 656.466 351.172 645.666 356.572 638.538 357.292 638.394 357.58 638.25 357.868 638.178 358.156 634.146 359.956 622.987 364.924 621.69 368.452 619.243 369.316 619.026 371.548 616.218 371.98 615.714 370.036 615.21 368.164 614.706 366.22 608.874 360.388 594.186 362.835 591.018 370.467 591.018 377.739 599.514 374.211 604.411 376.011 L604.411 376.731 605.203 376.731 C603.979 380.547 597.859 393.507 604.123 396.603 604.051 396.963 603.979 397.251 603.907 397.684 603.115 398.043 602.395 398.404 601.675 398.764 596.06 404.379 599.011 405.243 602.755 410.139 602.035 418.203 602.035 418.203 600.595 428.139 596.852 441.315 592.747 452.116 587.06 464.499 578.564 478.539 570.572 490.275 559.339 502.515 556.388 504.027 555.091 504.675 552.211 503.091 552.211 500.86 552.211 500.86 553.651 495.027 553.651 474.147 539.755 466.156 519.739 466.156 513.69 462.195 496.483 450.892 493.387 449.092 490.218 447.292 464.514 434.765 460.41 433.685 454.578 432.172 446.082 429.077 439.89 430.373 443.418 435.413 452.706 459.894 453.642 468.173 455.514 484.157 454.938 499.062 450.186 514.612 449.466 515.405 449.466 515.405 446.298 516.701 442.482 521.741 438.018 522.1 431.826 523.829 429.378 526.277 419.01 526.061 416.49 526.061 409.29 522.964 404.61 517.132 398.13 513.389 398.13 513.1 398.13 512.884 398.13 512.597 397.266 512.38 396.402 512.164 395.538 511.949 395.394 510.797 395.394 510.797 394.602 509.717 394.602 503.957 395.754 502.229 390.786 499.781 390.498 493.805 386.25 486.533 381.786 482.14 377.394 477.82 369.258 473.861 366.234 470.548 363.138 467.236 363.786 467.02 359.61 466.516 357.306 468.46 357.162 469.325 356.154 472.277 351.69 474.077 338.226 459.028 336.138 454.636 334.914 451.901 330.45 446.932 328.506 444.844 325.914 442.036 318.354 435.844 313.818 432.748 309.282 429.652 308.346 429.076 302.082 426.124 297.692 424.685 286.1 419.356 276.236 421.948 Z" fill="#000000" fill-opacity="1" stroke="none"/>
 <path id="Path-3" d="M439.892 594.389 C438.668 594.028 437.444 593.741 436.22 593.452 436.22 593.235 436.22 592.948 436.22 592.731 435.86 592.515 435.5 592.299 435.14 592.156 431.18 572.139 437.66 554.139 447.092 536.5 447.812 535.78 452.204 526.204 453.644 522.172 455.156 519.364 456.164 517.924 456.452 514.828 457.892 514.252 459.98 513.892 460.412 512.308 464.948 512.019 470.996 509.427 475.46 508.204 478.412 520.588 496.195 532.181 511.315 531.46 537.74 530.164 546.74 511.731 549.116 508.996 550.052 510.868 551.06 512.884 551.996 514.828 L552.788 514.828 C553.004 515.98 557.036 526.348 558.044 527.356 562.436 545.284 569.636 565.587 564.308 584.308 561.428 588.556 559.773 588.484 555.309 587.188 555.309 586.972 555.309 586.684 555.309 586.467 551.061 586.035 548.037 578.547 544.292 577.684 544.292 577.396 544.292 577.18 544.292 576.892 542.708 576.1 538.604 573.58 537.884 572.499 521.324 564.003 501.884 561.411 484.172 567.892 478.412 570.843 478.412 570.843 474.38 572.356 469.844 575.668 459.548 579.484 456.956 584.308 453.356 586.828 446.516 593.091 442.844 593.452 442.7 593.74 442.628 594.027 442.484 594.389 441.62 594.389 440.756 594.389 439.892 594.389 Z" fill="#ffffff" fill-opacity="1" stroke="none"/>
 <path id="Path-4" d="M478.772 495.748 L478.772 495.676 478.772 488.548 C481.724 471.557 507.572 468.748 525.212 471.269 537.813 474.581 544.868 476.597 547.244 482.932 555.596 505.181 528.596 522.028 511.748 524.405 494.828 526.708 481.508 513.676 478.772 495.748 Z M503.252 487.107 L548.397 487.107 Z" fill="#ff0000" fill-opacity="1" stroke="none"/>
 <path id="Path-5" d="M503.252 487.107 L548.397 487.107 C552.14 507.268 527.516 522.171 511.749 524.404 494.829 526.708 481.509 513.675 478.773 495.748 475.101 472.348 505.341 468.46 525.213 471.269 537.814 474.581 544.869 476.597 547.245 482.932 547.749 484.3 548.181 485.741 548.397 487.108 L503.252 487.108 Z" fill="#ff0000" fill-opacity="1" stroke="none"/>
 <path id="Path-6" d="M503.252 487.107 L548.397 487.107 C552.14 507.268 527.516 522.171 511.749 524.404 494.829 526.708 481.509 513.675 478.773 495.748 475.101 472.348 505.341 468.46 525.213 471.269 537.814 474.581 544.869 476.597 547.245 482.932 547.749 484.3 548.181 485.741 548.397 487.108 L503.252 487.108 Z" fill="#ff0101" fill-opacity="1" stroke="none"/>
 <path id="Path-7" d="M503.252 487.107 L548.397 487.107 C552.14 507.268 527.516 522.171 511.749 524.404 494.829 526.708 481.509 513.675 478.773 495.748 475.101 472.348 505.341 468.46 525.213 471.269 537.814 474.581 544.869 476.597 547.245 482.932 547.749 484.3 548.181 485.741 548.397 487.108 L503.252 487.108 Z" fill="#ff0202" fill-opacity="1" stroke="none"/>
 <path id="Path-8" d="M503.252 487.107 L548.397 487.107 C552.14 507.268 527.516 522.171 511.749 524.404 494.829 526.708 481.509 513.675 478.773 495.748 475.101 472.348 505.341 468.46 525.213 471.269 537.814 474.581 544.869 476.597 547.245 482.932 547.749 484.3 548.181 485.741 548.397 487.108 L503.252 487.108 Z" fill="#ff0304" fill-opacity="1" stroke="none"/>
 <path id="Path-9" d="M503.252 487.107 L548.397 487.107 C552.14 507.268 527.516 522.171 511.749 524.404 494.829 526.708 481.509 513.675 478.773 495.748 475.101 472.348 505.341 468.46 525.213 471.269 537.814 474.581 544.869 476.597 547.245 482.932 547.749 484.3 548.181 485.741 548.397 487.108 L503.252 487.108 Z" fill="#ff0505" fill-opacity="1" stroke="none"/>
 <path id="Path-10" d="M503.252 487.107 L548.397 487.107 C552.14 507.268 527.516 522.171 511.749 524.404 494.829 526.708 481.509 513.675 478.773 495.748 475.101 472.348 505.341 468.46 525.213 471.269 537.814 474.581 544.869 476.597 547.245 482.932 547.749 484.3 548.181 485.741 548.397 487.108 L503.252 487.108 Z" fill="#ff0607" fill-opacity="1" stroke="none"/>
 <path id="Path-11" d="M503.252 487.107 L548.397 487.107 C552.14 507.268 527.516 522.171 511.749 524.404 494.829 526.708 481.509 513.675 478.773 495.748 475.101 472.348 505.341 468.46 525.213 471.269 537.814 474.581 544.869 476.597 547.245 482.932 547.749 484.3 548.181 485.741 548.397 487.108 L503.252 487.108 Z" fill="#ff0708" fill-opacity="1" stroke="none"/>
 <path id="Path-12" d="M503.252 487.107 L548.397 487.107 C552.14 507.268 527.516 522.171 511.749 524.404 494.829 526.708 481.509 513.675 478.773 495.748 475.101 472.348 505.341 468.46 525.213 471.269 537.814 474.581 544.869 476.597 547.245 482.932 547.749 484.3 548.181 485.741 548.397 487.108 L503.252 487.108 Z" fill="#ff080a" fill-opacity="1" stroke="none"/>
 <path id="Path-13" d="M503.252 487.107 L548.397 487.107 C552.14 507.268 527.516 522.171 511.749 524.404 494.829 526.708 481.509 513.675 478.773 495.748 475.101 472.348 505.341 468.46 525.213 471.269 537.814 474.581 544.869 476.597 547.245 482.932 547.749 484.3 548.181 485.741 548.397 487.108 L503.252 487.108 Z" fill="#ff0a0b" fill-opacity="1" stroke="none"/>
 <path id="Path-14" d="M503.252 487.107 L548.397 487.107 C552.14 507.268 527.516 522.171 511.749 524.404 494.829 526.708 481.509 513.675 478.773 495.748 475.101 472.348 505.341 468.46 525.213 471.269 537.814 474.581 544.869 476.597 547.245 482.932 547.749 484.3 548.181 485.741 548.397 487.108 L503.252 487.108 Z" fill="#ff0b0c" fill-opacity="1" stroke="none"/>
 <path id="Path-15" d="M503.252 487.107 L548.397 487.107 C552.14 507.268 527.516 522.171 511.749 524.404 494.829 526.708 481.509 513.675 478.773 495.748 475.101 472.348 505.341 468.46 525.213 471.269 537.814 474.581 544.869 476.597 547.245 482.932 547.749 484.3 548.181 485.741 548.397 487.108 L503.252 487.108 Z" fill="#ff0c0e" fill-opacity="1" stroke="none"/>
 <path id="Path-16" d="M503.252 487.107 L548.397 487.107 C552.14 507.268 527.516 522.171 511.749 524.404 494.829 526.708 481.509 513.675 478.773 495.748 475.101 472.348 505.341 468.46 525.213 471.269 537.814 474.581 544.869 476.597 547.245 482.932 547.749 484.3 548.181 485.741 548.397 487.108 L503.252 487.108 Z" fill="#ff0e0f" fill-opacity="1" stroke="none"/>
 <path id="Path-17" d="M503.252 487.107 L548.397 487.107 C552.14 507.268 527.516 522.171 511.749 524.404 494.829 526.708 481.509 513.675 478.773 495.748 475.101 472.348 505.341 468.46 525.213 471.269 537.814 474.581 544.869 476.597 547.245 482.932 547.749 484.3 548.181 485.741 548.397 487.108 L503.252 487.108 Z" fill="#ff0f11" fill-opacity="1" stroke="none"/>
 <path id="Path-18" d="M503.252 487.107 L548.397 487.107 C552.14 507.268 527.516 522.171 511.749 524.404 494.829 526.708 481.509 513.675 478.773 495.748 475.101 472.348 505.341 468.46 525.213 471.269 537.814 474.581 544.869 476.597 547.245 482.932 547.749 484.3 548.181 485.741 548.397 487.108 L503.252 487.108 Z" fill="#ff1012" fill-opacity="1" stroke="none"/>
 <path id="Path-19" d="M503.252 487.107 L548.397 487.107 C552.14 507.268 527.516 522.171 511.749 524.404 494.829 526.708 481.509 513.675 478.773 495.748 475.101 472.348 505.341 468.46 525.213 471.269 537.814 474.581 544.869 476.597 547.245 482.932 547.749 484.3 548.181 485.741 548.397 487.108 L503.252 487.108 Z" fill="#ff1114" fill-opacity="1" stroke="none"/>
 <path id="Path-20" d="M503.252 487.107 L548.397 487.107 C552.14 507.268 527.516 522.171 511.749 524.404 494.829 526.708 481.509 513.675 478.773 495.748 475.101 472.348 505.341 468.46 525.213 471.269 537.814 474.581 544.869 476.597 547.245 482.932 547.749 484.3 548.181 485.741 548.397 487.108 L503.252 487.108 Z" fill="#ff1315" fill-opacity="1" stroke="none"/>
 <path id="Path-21" d="M503.252 487.107 L548.397 487.107 C552.14 507.268 527.516 522.171 511.749 524.404 494.829 526.708 481.509 513.675 478.773 495.748 475.101 472.348 505.341 468.46 525.213 471.269 537.814 474.581 544.869 476.597 547.245 482.932 547.749 484.3 548.181 485.741 548.397 487.108 L503.252 487.108 Z" fill="#ff1416" fill-opacity="1" stroke="none"/>
 <path id="Path-22" d="M503.252 487.107 L548.397 487.107 C552.14 507.268 527.516 522.171 511.749 524.404 494.829 526.708 481.509 513.675 478.773 495.748 475.101 472.348 505.341 468.46 525.213 471.269 537.814 474.581 544.869 476.597 547.245 482.932 547.749 484.3 548.181 485.741 548.397 487.108 L503.252 487.108 Z" fill="#ff1518" fill-opacity="1" stroke="none"/>
 <path id="Path-23" d="M503.252 487.107 L548.397 487.107 C552.14 507.268 527.516 522.171 511.749 524.404 494.829 526.708 481.509 513.675 478.773 495.748 475.101 472.348 505.341 468.46 525.213 471.269 537.814 474.581 544.869 476.597 547.245 482.932 547.749 484.3 548.181 485.741 548.397 487.108 L503.252 487.108 Z" fill="#ff1619" fill-opacity="1" stroke="none"/>
 <path id="Path-24" d="M503.252 487.107 L548.397 487.107 C552.14 507.268 527.516 522.171 511.749 524.404 494.829 526.708 481.509 513.675 478.773 495.748 475.101 472.348 505.341 468.46 525.213 471.269 537.814 474.581 544.869 476.597 547.245 482.932 547.749 484.3 548.181 485.741 548.397 487.108 L503.252 487.108 Z" fill="#ff181b" fill-opacity="1" stroke="none"/>
 <path id="Path-25" d="M503.252 487.107 L548.397 487.107 C552.14 507.268 527.516 522.171 511.749 524.404 494.829 526.708 481.509 513.675 478.773 495.748 475.101 472.348 505.341 468.46 525.213 471.269 537.814 474.581 544.869 476.597 547.245 482.932 547.749 484.3 548.181 485.741 548.397 487.108 L503.252 487.108 Z" fill="#ff191c" fill-opacity="1" stroke="none"/>
 <path id="Path-26" d="M503.252 487.107 L548.397 487.107 C552.14 507.268 527.516 522.171 511.749 524.404 494.829 526.708 481.509 513.675 478.773 495.748 475.101 472.348 505.341 468.46 525.213 471.269 537.814 474.581 544.869 476.597 547.245 482.932 547.749 484.3 548.181 485.741 548.397 487.108 L503.252 487.108 Z" fill="#ff1a1e" fill-opacity="1" stroke="none"/>
 <path id="Path-27" d="M503.252 487.107 L548.397 487.107 C552.14 507.268 527.516 522.171 511.749 524.404 494.829 526.708 481.509 513.675 478.773 495.748 475.101 472.348 505.341 468.46 525.213 471.269 537.814 474.581 544.869 476.597 547.245 482.932 547.749 484.3 548.181 485.741 548.397 487.108 L503.252 487.108 Z" fill="#ff1c1f" fill-opacity="1" stroke="none"/>
 <path id="Path-28" d="M503.252 487.107 L548.397 487.107 C552.14 507.268 527.516 522.171 511.749 524.404 494.829 526.708 481.509 513.675 478.773 495.748 475.101 472.348 505.341 468.46 525.213 471.269 537.814 474.581 544.869 476.597 547.245 482.932 547.749 484.3 548.181 485.741 548.397 487.108 L503.252 487.108 Z" fill="#ff1d21" fill-opacity="1" stroke="none"/>
 <path id="Path-29" d="M503.252 487.107 L548.397 487.107 C552.14 507.268 527.516 522.171 511.749 524.404 494.829 526.708 481.509 513.675 478.773 495.748 475.101 472.348 505.341 468.46 525.213 471.269 537.814 474.581 544.869 476.597 547.245 482.932 547.749 484.3 548.181 485.741 548.397 487.108 L503.252 487.108 Z" fill="#ff1e22" fill-opacity="1" stroke="none"/>
 <path id="Path-30" d="M503.252 487.107 L548.397 487.107 C552.14 507.268 527.516 522.171 511.749 524.404 494.829 526.708 481.509 513.675 478.773 495.748 475.101 472.348 505.341 468.46 525.213 471.269 537.814 474.581 544.869 476.597 547.245 482.932 547.749 484.3 548.181 485.741 548.397 487.108 L503.252 487.108 Z" fill="#ff1f23" fill-opacity="1" stroke="none"/>
 <path id="Path-31" d="M503.252 487.107 L548.397 487.107 C552.14 507.268 527.516 522.171 511.749 524.404 494.829 526.708 481.509 513.675 478.773 495.748 475.101 472.348 505.341 468.46 525.213 471.269 537.814 474.581 544.869 476.597 547.245 482.932 547.749 484.3 548.181 485.741 548.397 487.108 L503.252 487.108 Z" fill="#ff2125" fill-opacity="1" stroke="none"/>
 <path id="Path-32" d="M503.252 487.107 L548.397 487.107 C552.14 507.268 527.516 522.171 511.749 524.404 494.829 526.708 481.509 513.675 478.773 495.748 475.101 472.348 505.341 468.46 525.213 471.269 537.814 474.581 544.869 476.597 547.245 482.932 547.749 484.3 548.181 485.741 548.397 487.108 L503.252 487.108 Z" fill="#ff2226" fill-opacity="1" stroke="none"/>
 <path id="Path-33" d="M503.252 487.107 L548.397 487.107 C552.14 507.268 527.516 522.171 511.749 524.404 494.829 526.708 481.509 513.675 478.773 495.748 475.101 472.348 505.341 468.46 525.213 471.269 537.814 474.581 544.869 476.597 547.245 482.932 547.749 484.3 548.181 485.741 548.397 487.108 L503.252 487.108 Z" fill="#ff2328" fill-opacity="1" stroke="none"/>
 <path id="Path-34" d="M503.252 487.107 L548.397 487.107 C552.14 507.268 527.516 522.171 511.749 524.404 494.829 526.708 481.509 513.675 478.773 495.748 475.101 472.348 505.341 468.46 525.213 471.269 537.814 474.581 544.869 476.597 547.245 482.932 547.749 484.3 548.181 485.741 548.397 487.108 L503.252 487.108 Z" fill="#ff2429" fill-opacity="1" stroke="none"/>
 <path id="Path-35" d="M503.252 487.107 L548.397 487.107 C552.14 507.268 527.516 522.171 511.749 524.404 494.829 526.708 481.509 513.675 478.773 495.748 475.101 472.348 505.341 468.46 525.213 471.269 537.814 474.581 544.869 476.597 547.245 482.932 547.749 484.3 548.181 485.741 548.397 487.108 L503.252 487.108 Z" fill="#ff262b" fill-opacity="1" stroke="none"/>
 <path id="Path-36" d="M503.252 487.107 L548.397 487.107 C552.14 507.268 527.516 522.171 511.749 524.404 494.829 526.708 481.509 513.675 478.773 495.748 475.101 472.348 505.341 468.46 525.213 471.269 537.814 474.581 544.869 476.597 547.245 482.932 547.749 484.3 548.181 485.741 548.397 487.108 L503.252 487.108 Z" fill="#ff272c" fill-opacity="1" stroke="none"/>
 <path id="Path-37" d="M503.252 487.107 L548.397 487.107 C552.14 507.268 527.516 522.171 511.749 524.404 494.829 526.708 481.509 513.675 478.773 495.748 475.101 472.348 505.341 468.46 525.213 471.269 537.814 474.581 544.869 476.597 547.245 482.932 547.749 484.3 548.181 485.741 548.397 487.108 L503.252 487.108 Z" fill="#ff282d" fill-opacity="1" stroke="none"/>
 <path id="Path-38" d="M503.252 487.107 L548.397 487.107 C552.14 507.268 527.516 522.171 511.749 524.404 494.829 526.708 481.509 513.675 478.773 495.748 475.101 472.348 505.341 468.46 525.213 471.269 537.814 474.581 544.869 476.597 547.245 482.932 547.749 484.3 548.181 485.741 548.397 487.108 L503.252 487.108 Z" fill="#ff2a2f" fill-opacity="1" stroke="none"/>
 <path id="Path-39" d="M503.252 487.107 L548.397 487.107 C552.14 507.268 527.516 522.171 511.749 524.404 494.829 526.708 481.509 513.675 478.773 495.748 475.101 472.348 505.341 468.46 525.213 471.269 537.814 474.581 544.869 476.597 547.245 482.932 547.749 484.3 548.181 485.741 548.397 487.108 L503.252 487.108 Z" fill="#ff2b30" fill-opacity="1" stroke="none"/>
 <path id="Path-40" d="M503.252 487.107 L548.397 487.107 C552.14 507.268 527.516 522.171 511.749 524.404 494.829 526.708 481.509 513.675 478.773 495.748 475.101 472.348 505.341 468.46 525.213 471.269 537.814 474.581 544.869 476.597 547.245 482.932 547.749 484.3 548.181 485.741 548.397 487.108 L503.252 487.108 Z" fill="#ff2c32" fill-opacity="1" stroke="none"/>
 <path id="Path-41" d="M503.252 487.107 L548.397 487.107 C552.14 507.268 527.516 522.171 511.749 524.404 494.829 526.708 481.509 513.675 478.773 495.748 475.101 472.348 505.341 468.46 525.213 471.269 537.814 474.581 544.869 476.597 547.245 482.932 547.749 484.3 548.181 485.741 548.397 487.108 L503.252 487.108 Z" fill="#ff2d33" fill-opacity="1" stroke="none"/>
 <path id="Path-42" d="M503.252 487.107 L548.397 487.107 C552.14 507.268 527.516 522.171 511.749 524.404 494.829 526.708 481.509 513.675 478.773 495.748 475.101 472.348 505.341 468.46 525.213 471.269 537.814 474.581 544.869 476.597 547.245 482.932 547.749 484.3 548.181 485.741 548.397 487.108 L503.252 487.108 Z" fill="#ff2f35" fill-opacity="1" stroke="none"/>
 <path id="Path-43" d="M503.252 487.107 L548.397 487.107 C552.14 507.268 527.516 522.171 511.749 524.404 494.829 526.708 481.509 513.675 478.773 495.748 475.101 472.348 505.341 468.46 525.213 471.269 537.814 474.581 544.869 476.597 547.245 482.932 547.749 484.3 548.181 485.741 548.397 487.108 L503.252 487.108 Z" fill="#ff3036" fill-opacity="1" stroke="none"/>
 <path id="Path-44" d="M503.252 487.107 L548.397 487.107 C548.612 488.187 548.756 489.268 548.756 490.347 548.54 493.515 548.036 496.611 547.172 499.564 541.773 513.171 524.061 522.675 511.748 524.404 494.828 526.708 481.508 513.675 478.772 495.748 475.1 472.348 505.34 468.46 525.212 471.269 537.813 474.581 544.868 476.597 547.244 482.932 547.748 484.3 548.18 485.741 548.396 487.108 L503.252 487.108 Z" fill="#ff3138" fill-opacity="1" stroke="none"/>
 <path id="Path-45" d="M503.252 487.107 L548.397 487.107 C548.397 487.036 548.397 486.963 548.397 486.892 548.108 485.596 547.749 484.227 547.245 482.931 544.869 476.596 537.813 474.579 525.213 471.268 505.341 468.459 475.101 472.347 478.773 495.747 481.509 513.675 494.829 526.707 511.749 524.403 522.981 522.818 538.749 514.827 545.517 503.018 547.39 498.05 548.398 492.722 548.398 487.106 L503.252 487.106 Z" fill="#ff3239" fill-opacity="1" stroke="none"/>
 <path id="Path-46" d="M503.252 487.107 L547.893 487.107 C547.893 486.244 547.82 485.379 547.82 484.587 547.604 484.011 547.461 483.435 547.245 482.931 544.869 476.596 537.813 474.579 525.213 471.268 505.341 468.459 475.101 472.347 478.773 495.747 481.509 513.675 494.829 526.707 511.749 524.403 522.189 522.891 536.517 515.907 543.933 505.466 546.454 499.851 547.894 493.658 547.894 487.106 L503.252 487.106 Z" fill="#ff343a" fill-opacity="1" stroke="none"/>
 <path id="Path-47" d="M503.252 487.107 L547.389 487.107 C547.389 485.596 547.316 484.084 547.172 482.643 544.652 476.523 537.596 474.58 525.212 471.268 505.34 468.459 475.1 472.347 478.772 495.747 481.508 513.675 494.828 526.707 511.748 524.403 521.468 523.035 534.644 516.842 542.348 507.483 545.588 501.363 547.389 494.451 547.389 487.106 L503.252 487.106 Z" fill="#ff353c" fill-opacity="1" stroke="none"/>
 <path id="Path-48" d="M503.252 487.107 L546.884 487.107 C546.884 485.091 546.74 483.147 546.452 481.204 543.5 476.164 536.588 474.292 525.212 471.268 505.34 468.459 475.1 472.347 478.772 495.747 481.508 513.675 494.828 526.707 511.748 524.403 520.893 523.106 532.916 517.563 540.765 509.283 544.653 502.804 546.884 495.171 546.884 487.106 L503.252 487.106 Z" fill="#ff363d" fill-opacity="1" stroke="none"/>
 <path id="Path-49" d="M503.252 487.107 L546.309 487.107 C546.309 484.731 546.164 482.5 545.805 480.195 542.565 475.948 535.796 474.076 525.212 471.268 505.34 468.459 475.1 472.347 478.772 495.747 481.508 513.675 494.828 526.707 511.748 524.403 520.244 523.179 531.332 518.283 539.18 510.867 543.716 504.098 546.309 495.891 546.309 487.106 L503.252 487.106 Z" fill="#ff383f" fill-opacity="1" stroke="none"/>
 <path id="Path-50" d="M503.252 487.107 L545.805 487.107 C545.805 484.515 545.588 481.923 545.157 479.476 541.701 475.66 535.148 473.931 525.213 471.268 505.341 468.459 475.101 472.347 478.773 495.747 481.509 513.675 494.829 526.707 511.749 524.403 519.669 523.251 529.82 519.003 537.453 512.451 542.709 505.323 545.806 496.61 545.806 487.106 L503.252 487.106 Z" fill="#ff3940" fill-opacity="1" stroke="none"/>
 <path id="Path-51" d="M503.252 487.107 L545.3 487.107 C545.3 484.227 545.012 481.492 544.508 478.828 540.908 475.516 534.572 473.788 525.212 471.268 505.34 468.459 475.1 472.347 478.772 495.747 481.508 513.675 494.828 526.707 511.748 524.403 519.019 523.323 528.309 519.579 535.724 513.891 541.701 506.619 545.3 497.258 545.3 487.106 L503.252 487.106 Z" fill="#ff3a42" fill-opacity="1" stroke="none"/>
 <path id="Path-52" d="M503.252 487.107 L544.796 487.107 C544.796 484.084 544.436 481.131 543.86 478.252 540.188 475.3 534.068 473.644 525.212 471.269 505.34 468.46 475.1 472.348 478.772 495.748 481.508 513.676 494.828 526.708 511.748 524.404 518.443 523.467 526.724 520.227 533.779 515.259 540.62 507.843 544.796 497.98 544.796 487.107 Z" fill="#ff3b43" fill-opacity="1" stroke="none"/>
 <path id="Path-53" d="M503.252 487.107 L544.292 487.107 C544.292 483.868 543.932 480.772 543.212 477.748 539.468 475.084 533.565 473.5 525.212 471.269 505.34 468.46 475.1 472.348 478.772 495.748 481.508 513.676 494.828 526.708 511.748 524.404 517.796 523.54 525.14 520.804 531.691 516.628 539.467 509.212 544.292 498.7 544.292 487.107 Z" fill="#ff3d44" fill-opacity="1" stroke="none"/>
 <path id="Path-54" d="M503.252 487.107 L543.788 487.107 C543.788 483.723 543.356 480.484 542.564 477.315 538.819 474.939 533.131 473.356 525.211 471.268 505.339 468.459 475.099 472.347 478.771 495.747 481.507 513.675 494.827 526.707 511.747 524.403 517.075 523.61 523.483 521.379 529.459 517.995 538.243 510.579 543.787 499.491 543.787 487.106 L503.252 487.106 Z" fill="#ff3e46" fill-opacity="1" stroke="none"/>
 <path id="Path-55" d="M503.252 487.107 L543.284 487.107 C543.284 483.58 542.779 480.195 541.988 476.956 538.172 474.724 532.7 473.284 525.212 471.268 505.34 468.459 475.1 472.347 478.772 495.747 481.508 513.675 494.828 526.707 511.748 524.403 516.356 523.755 521.684 522.026 526.868 519.363 536.805 512.091 543.284 500.355 543.284 487.106 L503.252 487.106 Z" fill="#ff3f47" fill-opacity="1" stroke="none"/>
 <path id="Path-56" d="M503.252 487.107 L542.779 487.107 C542.779 483.435 542.275 479.98 541.34 476.596 537.596 474.579 532.269 473.139 525.212 471.268 505.34 468.459 475.1 472.347 478.772 495.747 481.508 513.675 494.828 526.707 511.748 524.403 515.42 523.827 519.668 522.602 523.844 520.803 535.148 513.891 542.78 501.363 542.78 487.106 L503.252 487.106 Z" fill="#ff4149" fill-opacity="1" stroke="none"/>
 <path id="Path-57" d="M503.252 487.107 L542.204 487.107 C542.204 483.364 541.7 479.692 540.691 476.308 537.019 474.435 531.908 473.068 525.212 471.268 505.34 468.459 475.1 472.347 478.772 495.747 481.508 513.675 494.828 526.707 511.748 524.403 514.34 524.043 517.147 523.323 520.1 522.314 533.204 515.979 542.204 502.586 542.204 487.106 L503.252 487.106 Z" fill="#ff424a" fill-opacity="1" stroke="none"/>
 <path id="Path-58" d="M503.252 487.107 L541.7 487.107 C541.7 483.219 541.124 479.476 540.116 475.948 536.443 474.292 531.548 472.924 525.212 471.268 505.34 468.459 475.1 472.347 478.772 495.747 481.508 513.675 494.828 526.707 511.748 524.403 512.756 524.258 513.836 524.043 514.988 523.755 530.467 518.787 541.7 504.243 541.7 487.107 Z" fill="#ff434c" fill-opacity="1" stroke="none"/>
 <path id="Path-59" d="M503.252 487.107 L541.195 487.107 C541.195 483.147 540.62 479.332 539.467 475.66 535.867 474.147 531.188 472.852 525.211 471.268 505.339 468.459 475.099 472.347 478.771 495.747 481.363 512.81 493.531 525.411 509.299 524.619 527.371 521.739 541.195 506.043 541.195 487.106 L503.252 487.106 Z" fill="#ff444d" fill-opacity="1" stroke="none"/>
 <path id="Path-60" d="M503.252 487.107 L540.691 487.107 C540.691 483.003 540.044 479.116 538.819 475.443 535.364 474.004 530.828 472.78 525.212 471.268 505.34 468.459 475.1 472.347 478.772 495.747 481.147 511.299 491.516 523.18 505.269 524.547 524.997 523.467 540.692 507.123 540.692 487.107 Z" fill="#ff464e" fill-opacity="1" stroke="none"/>
 <path id="Path-61" d="M503.252 487.107 L540.189 487.107 C540.189 482.931 539.468 478.9 538.172 475.156 534.788 473.86 530.54 472.708 525.212 471.268 505.34 468.459 475.1 472.347 478.772 495.747 481.004 510.146 490.004 521.379 502.244 524.043 L503.252 524.043 C523.628 524.043 540.189 507.483 540.189 487.106 L503.252 487.106 Z" fill="#ff4750" fill-opacity="1" stroke="none"/>
 <path id="Path-62" d="M503.252 487.107 L539.684 487.107 C539.684 482.86 538.893 478.755 537.596 474.939 534.284 473.715 530.18 472.635 525.212 471.268 505.34 468.459 475.1 472.347 478.772 495.747 480.788 509.139 488.779 519.867 499.796 523.395 500.876 523.466 502.027 523.539 503.252 523.539 523.34 523.539 539.684 507.194 539.684 487.106 L503.252 487.106 Z" fill="#ff4851" fill-opacity="1" stroke="none"/>
 <path id="Path-63" d="M503.252 487.107 L539.18 487.107 C539.18 482.715 538.389 478.54 536.949 474.723 533.78 473.572 529.893 472.492 525.213 471.268 505.341 468.459 475.101 472.347 478.773 495.747 480.717 508.275 487.773 518.427 497.709 522.602 499.509 522.891 501.31 523.035 503.253 523.035 523.053 523.035 539.181 506.907 539.181 487.106 L503.252 487.106 Z" fill="#ff4953" fill-opacity="1" stroke="none"/>
 <path id="Path-64" d="M503.252 487.107 L538.604 487.107 C538.604 482.643 537.813 478.396 536.3 474.507 533.276 473.427 529.604 472.419 525.212 471.268 505.34 468.459 475.1 472.347 478.772 495.747 480.572 507.483 486.908 517.131 495.836 521.739 498.212 522.243 500.66 522.531 503.252 522.531 522.765 522.531 538.604 506.691 538.604 487.106 L503.252 487.106 Z" fill="#ff4b54" fill-opacity="1" stroke="none"/>
 <path id="Path-65" d="M503.252 487.107 L538.1 487.107 C538.1 482.572 537.236 478.252 535.653 474.292 532.773 473.284 529.316 472.348 525.213 471.269 505.341 468.46 475.101 472.348 478.773 495.748 480.501 506.765 486.117 515.908 494.182 520.805 497.062 521.597 500.085 522.028 503.253 522.028 522.478 522.028 538.101 506.405 538.101 487.108 L503.252 487.108 Z" fill="#ff4c56" fill-opacity="1" stroke="none"/>
 <path id="Path-66" d="M503.252 487.107 L537.596 487.107 C537.596 482.5 536.732 478.107 535.076 474.076 532.268 473.139 528.956 472.276 525.212 471.268 505.34 468.459 475.1 472.347 478.772 495.747 480.428 506.043 485.468 514.755 492.668 519.867 495.98 520.947 499.58 521.522 503.252 521.522 522.189 521.522 537.596 506.115 537.596 487.106 L503.252 487.106 Z" fill="#ff4d57" fill-opacity="1" stroke="none"/>
 <path id="Path-67" d="M503.252 487.107 L537.092 487.107 C537.092 482.427 536.156 477.892 534.428 473.86 531.765 472.996 528.74 472.204 525.212 471.268 505.34 468.459 475.1 472.347 478.772 495.747 480.284 505.395 484.819 513.675 491.372 518.859 495.044 520.226 499.004 521.018 503.252 521.018 521.9 521.018 537.092 505.827 537.092 487.106 L503.252 487.106 Z" fill="#ff4f59" fill-opacity="1" stroke="none"/>
 <path id="Path-68" d="M503.252 487.107 L536.588 487.107 C536.588 482.284 535.58 477.748 533.779 473.643 531.259 472.923 528.452 472.131 525.212 471.268 505.34 468.459 475.1 472.347 478.772 495.747 480.212 504.747 484.244 512.596 490.076 517.779 494.107 519.507 498.572 520.442 503.252 520.442 521.611 520.442 536.588 505.539 536.588 487.106 L503.252 487.106 Z" fill="#ff505a" fill-opacity="1" stroke="none"/>
 <path id="Path-69" d="M503.252 487.107 L536.084 487.107 C536.084 482.211 535.004 477.603 533.132 473.427 530.756 472.78 528.164 472.06 525.212 471.268 505.34 468.459 475.1 472.347 478.772 495.747 480.068 504.171 483.668 511.515 488.924 516.699 493.244 518.787 498.069 519.938 503.252 519.938 521.324 519.938 536.084 505.25 536.084 487.106 L503.252 487.106 Z" fill="#ff515b" fill-opacity="1" stroke="none"/>
 <path id="Path-70" d="M503.252 487.107 L535.58 487.107 C535.58 482.139 534.428 477.46 532.484 473.284 530.252 472.636 527.876 471.988 525.212 471.268 505.34 468.459 475.1 472.347 478.772 495.747 479.996 503.522 483.164 510.435 487.772 515.547 492.379 517.995 497.635 519.435 503.251 519.435 521.035 519.435 535.579 504.963 535.579 487.107 Z" fill="#ff525d" fill-opacity="1" stroke="none"/>
 <path id="Path-71" d="M503.252 487.107 L535.076 487.107 C535.076 482.068 533.852 477.315 531.764 473.068 529.819 472.492 527.587 471.916 525.211 471.268 505.339 468.459 475.099 472.347 478.771 495.747 479.923 502.947 482.659 509.427 486.764 514.395 491.587 517.275 497.203 518.93 503.251 518.93 520.818 518.93 535.075 504.674 535.075 487.106 L503.252 487.106 Z" fill="#ff545e" fill-opacity="1" stroke="none"/>
 <path id="Path-72" d="M503.252 487.107 L534.5 487.107 C534.5 481.996 533.275 477.171 531.116 472.852 529.315 472.347 527.372 471.843 525.212 471.268 505.34 468.459 475.1 472.347 478.772 495.747 479.852 502.371 482.229 508.347 485.828 513.171 490.796 516.483 496.772 518.427 503.252 518.427 520.532 518.427 534.5 504.388 534.5 487.107 Z" fill="#ff5560" fill-opacity="1" stroke="none"/>
 <path id="Path-73" d="M503.252 487.107 L533.996 487.107 C533.996 481.923 532.7 477.027 530.468 472.708 528.813 472.276 527.084 471.772 525.212 471.269 505.34 468.46 475.1 472.348 478.772 495.748 479.708 501.796 481.796 507.34 484.893 511.876 490.004 515.692 496.34 517.924 503.252 517.924 520.244 517.924 533.996 504.1 533.996 487.108 L503.252 487.108 Z" fill="#ff5661" fill-opacity="1" stroke="none"/>
 <path id="Path-74" d="M503.252 487.107 L533.492 487.107 C533.492 481.78 532.124 476.811 529.748 472.492 528.309 472.132 526.868 471.7 525.212 471.268 505.34 468.459 475.1 472.347 478.772 495.747 479.636 501.219 481.436 506.259 484.1 510.579 489.285 514.827 495.981 517.419 503.252 517.419 519.956 517.419 533.492 503.811 533.492 487.107 Z" fill="#ff5763" fill-opacity="1" stroke="none"/>
 <path id="Path-75" d="M503.252 487.107 L532.988 487.107 C532.988 481.708 531.548 476.668 529.027 472.347 527.876 471.988 526.58 471.627 525.212 471.268 505.34 468.459 475.1 472.347 478.772 495.747 479.564 500.643 481.076 505.251 483.235 509.211 488.564 513.963 495.547 516.843 503.252 516.843 519.668 516.843 532.988 503.523 532.988 487.107 Z" fill="#ff5964" fill-opacity="1" stroke="none"/>
 <path id="Path-76" d="M503.252 487.107 L532.484 487.107 C532.484 481.635 530.972 476.523 528.38 472.131 527.372 471.843 526.292 471.556 525.212 471.268 505.34 468.459 475.1 472.347 478.772 495.747 479.492 500.067 480.716 504.171 482.516 507.771 487.844 513.098 495.117 516.338 503.252 516.338 519.38 516.338 532.484 503.234 532.484 487.106 L503.252 487.106 Z" fill="#ff5a65" fill-opacity="1" stroke="none"/>
 <path id="Path-77" d="M503.252 487.107 L531.981 487.107 C531.981 481.564 530.397 476.308 527.661 471.916 526.869 471.7 526.077 471.484 525.213 471.269 505.341 468.46 475.101 472.348 478.773 495.748 479.349 499.492 480.429 503.019 481.797 506.26 487.053 512.164 494.685 515.836 503.253 515.836 519.093 515.836 531.982 502.948 531.982 487.107 Z" fill="#ff5b67" fill-opacity="1" stroke="none"/>
 <path id="Path-78" d="M503.252 487.107 L531.477 487.107 C531.477 481.419 529.748 476.164 526.869 471.772 526.365 471.627 525.789 471.484 525.213 471.268 505.341 468.459 475.101 472.347 478.773 495.747 479.277 498.915 480.069 501.867 481.148 504.675 486.333 511.155 494.252 515.331 503.252 515.331 518.805 515.331 531.477 502.659 531.477 487.106 L503.252 487.106 Z" fill="#ff5d68" fill-opacity="1" stroke="none"/>
 <path id="Path-79" d="M503.252 487.107 L530.973 487.107 C530.973 481.347 529.172 475.948 526.148 471.556 525.861 471.484 525.573 471.411 525.212 471.268 505.34 468.459 475.1 472.347 478.772 495.747 479.204 498.268 479.78 500.715 480.5 502.947 485.54 510.146 493.819 514.827 503.252 514.827 518.516 514.827 530.973 502.371 530.973 487.106 L503.252 487.106 Z" fill="#ff5e6a" fill-opacity="1" stroke="none"/>
 <path id="Path-80" d="M503.252 487.107 L530.397 487.107 C530.397 481.204 528.524 475.804 525.357 471.339 525.357 471.339 525.285 471.339 525.212 471.268 505.34 468.459 475.1 472.347 478.772 495.747 479.06 497.619 479.492 499.419 479.996 501.146 484.676 509.067 493.315 514.323 503.252 514.323 518.229 514.323 530.397 502.155 530.397 487.106 L503.252 487.106 Z" fill="#ff5f6b" fill-opacity="1" stroke="none"/>
 <path id="Path-81" d="M503.252 487.107 L529.893 487.107 C529.893 481.131 527.949 475.66 524.636 471.195 504.765 468.532 475.1 472.635 478.772 495.748 478.988 496.9 479.204 497.98 479.42 499.132 483.74 507.844 492.813 513.82 503.252 513.82 517.94 513.82 529.893 501.869 529.893 487.108 L503.252 487.108 Z" fill="#ff606d" fill-opacity="1" stroke="none"/>
 <path id="Path-82" d="M503.252 487.107 L529.389 487.107 C529.389 481.06 527.372 475.515 523.989 471.124 504.045 468.603 475.173 472.853 478.773 495.748 478.845 496.107 478.917 496.396 478.917 496.756 482.732 506.404 492.165 513.316 503.253 513.316 517.653 513.316 529.39 501.581 529.39 487.108 L503.252 487.108 Z" fill="#ff626e" fill-opacity="1" stroke="none"/>
 <path id="Path-83" d="M503.252 487.107 L528.884 487.107 C528.884 481.06 526.796 475.443 523.196 471.051 503.829 468.819 476.685 472.923 478.557 494.019 481.509 504.819 491.444 512.74 503.253 512.74 517.365 512.74 528.885 501.292 528.885 487.107 Z" fill="#ff6370" fill-opacity="1" stroke="none"/>
 <path id="Path-84" d="M503.252 487.107 L528.38 487.107 C528.38 480.988 526.148 475.299 522.477 470.98 504.044 469.036 479.06 472.852 478.484 491.284 480.5 503.164 490.724 512.235 503.252 512.235 517.076 512.235 528.38 501.004 528.38 487.107 Z" fill="#ff6572" fill-opacity="1" stroke="none"/>
 <path id="Path-85" d="M503.252 487.107 L527.876 487.107 C527.876 480.916 525.572 475.227 521.756 470.908 504.26 469.18 481.22 472.708 478.7 488.836 479.636 501.652 490.22 511.732 503.252 511.732 516.788 511.732 527.876 500.716 527.876 487.108 L503.252 487.108 Z" fill="#ff6774" fill-opacity="1" stroke="none"/>
 <path id="Path-86" d="M503.252 487.107 L527.372 487.107 C527.372 480.843 524.924 475.084 521.036 470.836 504.332 469.324 483.164 472.636 479.132 486.819 L479.132 487.107 C479.132 500.427 489.932 511.227 503.252 511.227 516.5 511.227 527.372 500.427 527.372 487.107 Z" fill="#ff6976" fill-opacity="1" stroke="none"/>
 <path id="Path-87" d="M503.252 487.107 L526.796 487.107 C526.796 480.772 524.348 475.011 520.244 470.764 504.403 469.539 484.819 472.564 479.78 485.091 479.708 485.811 479.708 486.459 479.708 487.107 479.708 500.139 490.147 510.723 503.252 510.723 516.284 510.723 526.796 500.139 526.796 487.107 Z" fill="#ff6b79" fill-opacity="1" stroke="none"/>
 <path id="Path-88" d="M503.252 487.107 L526.292 487.107 C526.292 480.7 523.7 474.868 519.452 470.692 504.403 469.684 486.26 472.492 480.428 483.652 480.284 484.804 480.212 485.956 480.212 487.107 480.212 499.852 490.436 510.219 503.252 510.219 515.996 510.219 526.292 499.852 526.292 487.107 Z" fill="#ff6d7b" fill-opacity="1" stroke="none"/>
 <path id="Path-89" d="M503.252 487.107 L525.788 487.107 C525.788 480.628 523.052 474.795 518.66 470.62 504.403 469.828 487.628 472.492 481.147 482.356 480.788 483.868 480.644 485.452 480.644 487.107 480.644 499.564 490.724 509.715 503.252 509.715 515.708 509.715 525.788 499.564 525.788 487.107 Z" fill="#ff6f7d" fill-opacity="1" stroke="none"/>
 <path id="Path-90" d="M503.252 487.107 L525.284 487.107 C525.284 480.556 522.403 474.652 517.868 470.62 504.332 469.9 488.779 472.492 481.939 481.276 481.435 483.147 481.147 485.091 481.147 487.107 481.147 499.276 491.011 509.211 503.251 509.211 515.419 509.211 525.283 499.275 525.283 487.107 Z" fill="#ff7180" fill-opacity="1" stroke="none"/>
 <path id="Path-91" d="M503.252 487.107 L524.779 487.107 C524.779 480.484 521.756 474.507 517.076 470.547 504.188 470.043 489.788 472.419 482.731 480.268 482.011 482.427 481.652 484.731 481.652 487.107 481.652 498.988 491.299 508.635 503.252 508.635 515.132 508.635 524.779 498.988 524.779 487.107 Z" fill="#ff7382" fill-opacity="1" stroke="none"/>
 <path id="Path-92" d="M503.252 487.107 L524.275 487.107 C524.275 480.412 521.107 474.364 516.212 470.547 504.116 470.187 490.796 472.419 483.668 479.331 482.66 481.779 482.156 484.371 482.156 487.106 482.156 498.699 491.588 508.13 503.252 508.13 514.844 508.13 524.275 498.698 524.275 487.106 L503.252 487.106 Z" fill="#ff7584" fill-opacity="1" stroke="none"/>
 <path id="Path-93" d="M503.252 487.107 L523.773 487.107 C523.773 480.268 520.461 474.219 515.276 470.476 503.973 470.331 491.732 472.419 484.533 478.539 483.381 481.131 482.661 484.011 482.661 487.106 482.661 498.411 491.877 507.627 503.253 507.627 514.558 507.627 523.774 498.411 523.774 487.106 L503.252 487.106 Z" fill="#ff7887" fill-opacity="1" stroke="none"/>
 <path id="Path-94" d="M503.252 487.107 L523.269 487.107 C523.269 480.195 519.741 474.076 514.413 470.476 503.829 470.404 492.597 472.347 485.541 477.747 484.028 480.556 483.165 483.723 483.165 487.106 483.165 498.123 492.165 507.123 503.253 507.123 514.27 507.123 523.27 498.123 523.27 487.106 L503.252 487.106 Z" fill="#ff7a89" fill-opacity="1" stroke="none"/>
 <path id="Path-95" d="M503.252 487.107 L522.691 487.107 C522.691 480.124 519.019 473.931 513.476 470.476 503.611 470.547 493.388 472.347 486.547 477.027 484.747 479.98 483.739 483.435 483.739 487.107 483.739 497.836 492.451 506.62 503.251 506.62 513.98 506.62 522.69 497.836 522.69 487.107 Z" fill="#ff7c8b" fill-opacity="1" stroke="none"/>
 <path id="Path-96" d="M503.252 487.107 L522.189 487.107 C522.189 479.98 518.3 473.788 512.468 470.476 503.397 470.62 494.181 472.347 487.557 476.379 485.468 479.403 484.245 483.075 484.245 487.107 484.245 497.62 492.741 506.116 503.253 506.116 513.692 506.116 522.19 497.62 522.19 487.107 Z" fill="#ff7e8e" fill-opacity="1" stroke="none"/>
 <path id="Path-97" d="M503.252 487.107 L521.684 487.107 C521.684 479.836 517.508 473.572 511.389 470.547 503.181 470.764 494.901 472.276 488.636 475.731 486.189 478.828 484.748 482.788 484.748 487.107 484.748 497.332 493.027 505.611 503.252 505.611 513.403 505.611 521.684 497.332 521.684 487.107 Z" fill="#ff8090" fill-opacity="1" stroke="none"/>
 <path id="Path-98" d="M503.252 487.107 L521.181 487.107 C521.181 479.692 516.716 473.284 510.236 470.547 502.965 470.907 495.621 472.276 489.861 475.083 486.981 478.251 485.253 482.499 485.253 487.106 485.253 497.043 493.316 505.035 503.253 505.035 513.117 505.035 521.182 497.043 521.182 487.106 L503.252 487.106 Z" fill="#ff8292" fill-opacity="1" stroke="none"/>
 <path id="Path-99" d="M503.252 487.107 L520.676 487.107 C520.676 479.476 515.78 472.996 509.012 470.62 502.676 471.052 496.34 472.204 491.157 474.508 487.845 477.676 485.757 482.14 485.757 487.108 485.757 496.756 493.605 504.533 503.253 504.533 512.829 504.533 520.677 496.757 520.677 487.108 L503.252 487.108 Z" fill="#ff8495" fill-opacity="1" stroke="none"/>
 <path id="Path-100" d="M503.252 487.107 L520.172 487.107 C520.172 479.259 514.844 472.635 507.572 470.764 502.315 471.123 497.132 472.131 492.595 473.86 488.779 476.956 486.259 481.78 486.259 487.107 486.259 496.467 493.892 504.027 503.251 504.027 512.539 504.027 520.171 496.467 520.171 487.107 Z" fill="#ff8697" fill-opacity="1" stroke="none"/>
 <path id="Path-101" d="M503.252 487.107 L519.668 487.107 C519.668 478.972 513.691 472.204 505.916 470.908 501.884 471.34 497.924 472.06 494.396 473.284 489.788 476.164 486.764 481.276 486.764 487.107 486.764 496.18 494.18 503.523 503.251 503.523 512.251 503.523 519.667 496.18 519.667 487.107 Z" fill="#ff8899" fill-opacity="1" stroke="none"/>
 <path id="Path-102" d="M503.252 487.107 L519.164 487.107 C519.164 478.396 512.107 471.339 503.468 471.195 501.164 471.484 499.004 471.916 496.844 472.492 491.229 474.939 487.269 480.556 487.269 487.107 487.269 495.892 494.397 503.019 503.252 503.019 512.036 503.019 519.164 495.892 519.164 487.107 Z" fill="#ff8a9c" fill-opacity="1" stroke="none"/>
 <path id="Path-103" d="M503.252 487.107 L518.588 487.107 C518.588 478.611 511.748 471.7 503.252 471.7 494.684 471.7 487.844 478.611 487.844 487.107 487.844 495.603 494.684 502.515 503.252 502.515 511.748 502.515 518.588 495.603 518.588 487.107 Z" fill="#ff8c9e" fill-opacity="1" stroke="none"/>
 <path id="Path-104" d="M503.252 487.107 L518.084 487.107 C518.084 478.9 511.46 472.204 503.252 472.204 494.973 472.204 488.348 478.9 488.348 487.107 488.348 495.315 494.973 502.011 503.252 502.011 511.46 502.011 518.084 495.315 518.084 487.107 Z" fill="#ff8ea0" fill-opacity="1" stroke="none"/>
 <path id="Path-105" d="M503.252 487.107 L517.58 487.107 C517.58 479.187 511.172 472.708 503.252 472.708 495.26 472.708 488.853 479.187 488.853 487.107 488.853 495.027 495.26 501.507 503.252 501.507 511.172 501.507 517.58 495.027 517.58 487.107 Z" fill="#ff90a2" fill-opacity="1" stroke="none"/>
 <path id="Path-106" d="M503.252 487.107 L517.076 487.107 C517.076 479.476 510.884 473.211 503.252 473.211 495.548 473.211 489.356 479.476 489.356 487.107 489.356 494.74 495.547 500.931 503.252 500.931 510.884 500.931 517.076 494.74 517.076 487.107 Z" fill="#ff92a5" fill-opacity="1" stroke="none"/>
 <path id="Path-107" d="M503.252 487.107 L516.572 487.107 C516.572 479.764 510.595 473.788 503.252 473.788 495.836 473.788 489.86 479.765 489.86 487.107 489.86 494.452 495.836 500.427 503.252 500.427 510.596 500.427 516.572 494.451 516.572 487.107 Z" fill="#ff94a7" fill-opacity="1" stroke="none"/>
 <path id="Path-108" d="M503.252 487.107 L516.068 487.107 C516.068 480.051 510.308 474.292 503.252 474.292 496.124 474.292 490.364 480.052 490.364 487.107 490.364 494.164 496.124 499.923 503.252 499.923 510.309 499.923 516.068 494.163 516.068 487.107 Z" fill="#ff96a9" fill-opacity="1" stroke="none"/>
 <path id="Path-109" d="M503.252 487.107 L515.564 487.107 C515.564 480.268 510.019 474.795 503.252 474.795 496.412 474.795 490.868 480.268 490.868 487.107 490.868 493.876 496.412 499.419 503.252 499.419 510.02 499.419 515.564 493.875 515.564 487.107 Z" fill="#ff98ac" fill-opacity="1" stroke="none"/>
 <path id="Path-110" d="M503.252 487.107 L514.988 487.107 C514.988 480.556 509.731 475.299 503.252 475.299 496.7 475.299 491.443 480.556 491.443 487.107 491.443 493.587 496.7 498.916 503.252 498.916 509.731 498.916 514.988 493.588 514.988 487.107 Z" fill="#ff9aae" fill-opacity="1" stroke="none"/>
 <path id="Path-111" d="M503.252 487.107 L514.484 487.107 C514.484 480.843 509.443 475.804 503.252 475.804 496.988 475.804 491.948 480.843 491.948 487.107 491.948 493.372 496.988 498.412 503.252 498.412 509.443 498.412 514.484 493.372 514.484 487.107 Z" fill="#ff9db0" fill-opacity="1" stroke="none"/>
 <path id="Path-112" d="M503.252 487.107 L513.981 487.107 C513.981 481.131 509.157 476.308 503.252 476.308 497.275 476.308 492.452 481.131 492.452 487.107 492.452 493.084 497.275 497.908 503.252 497.908 509.156 497.908 513.981 493.084 513.981 487.107 Z" fill="#ff9fb3" fill-opacity="1" stroke="none"/>
 <path id="Path-113" d="M503.252 487.107 L513.477 487.107 C513.477 481.419 508.869 476.811 503.252 476.811 497.564 476.811 492.956 481.419 492.956 487.107 492.956 492.795 497.564 497.404 503.252 497.404 508.868 497.404 513.477 492.796 513.477 487.107 Z" fill="#ffa1b5" fill-opacity="1" stroke="none"/>
 <path id="Path-114" d="M503.252 487.107 L512.973 487.107 C512.973 481.708 508.58 477.315 503.252 477.315 497.853 477.315 493.46 481.708 493.46 487.107 493.46 492.507 497.853 496.828 503.252 496.828 508.58 496.828 512.973 492.508 512.973 487.107 Z" fill="#ffa3b7" fill-opacity="1" stroke="none"/>
 <path id="Path-115" d="M503.252 487.107 L512.468 487.107 C512.468 481.996 508.292 477.892 503.252 477.892 498.14 477.892 493.964 481.996 493.964 487.107 493.964 492.219 498.14 496.324 503.252 496.324 508.292 496.324 512.468 492.22 512.468 487.107 Z" fill="#ffa5ba" fill-opacity="1" stroke="none"/>
 <path id="Path-116" d="M503.252 487.107 L511.964 487.107 C511.964 482.284 508.004 478.396 503.252 478.396 498.428 478.396 494.468 482.284 494.468 487.107 494.468 491.931 498.428 495.819 503.252 495.819 508.004 495.819 511.964 491.931 511.964 487.107 Z" fill="#ffa7bc" fill-opacity="1" stroke="none"/>
 <path id="Path-117" d="M503.252 487.107 L511.46 487.107 C511.46 482.572 507.716 478.9 503.252 478.9 498.716 478.9 494.973 482.572 494.973 487.107 494.973 491.643 498.716 495.315 503.252 495.315 507.716 495.315 511.46 491.643 511.46 487.107 Z" fill="#ffa9be" fill-opacity="1" stroke="none"/>
 <path id="Path-118" d="M503.252 487.107 L510.884 487.107 C510.884 482.86 507.5 479.404 503.252 479.404 498.932 479.404 495.548 482.86 495.548 487.107 495.548 491.356 498.932 494.811 503.252 494.811 507.5 494.811 510.884 491.356 510.884 487.107 Z" fill="#ffabc1" fill-opacity="1" stroke="none"/>
 <path id="Path-119" d="M503.252 487.107 L510.38 487.107 C510.38 483.147 507.212 479.908 503.252 479.908 499.22 479.908 496.052 483.147 496.052 487.107 496.052 491.068 499.22 494.308 503.252 494.308 507.212 494.308 510.38 491.068 510.38 487.107 Z" fill="#ffadc3" fill-opacity="1" stroke="none"/>
 <path id="Path-120" d="M503.252 487.107 L509.876 487.107 C509.876 483.435 506.924 480.412 503.252 480.412 499.508 480.412 496.557 483.435 496.557 487.107 496.557 490.78 499.508 493.804 503.252 493.804 506.924 493.804 509.876 490.78 509.876 487.107 Z" fill="#ffafc5" fill-opacity="1" stroke="none"/>
 <path id="Path-121" d="M503.252 487.107 L509.372 487.107 C509.372 483.723 506.636 480.916 503.252 480.916 499.796 480.916 497.061 483.724 497.061 487.107 497.061 490.492 499.796 493.227 503.252 493.227 506.636 493.227 509.372 490.492 509.372 487.107 Z" fill="#ffb1c8" fill-opacity="1" stroke="none"/>
 <path id="Path-122" d="M503.252 487.107 L508.868 487.107 C508.868 484.011 506.347 481.492 503.252 481.492 500.084 481.492 497.564 484.012 497.564 487.107 497.564 490.204 500.084 492.723 503.252 492.723 506.348 492.723 508.868 490.203 508.868 487.107 Z" fill="#ffb3ca" fill-opacity="1" stroke="none"/>
 <path id="Path-123" d="M503.252 487.107 L508.364 487.107 C508.364 484.299 506.06 481.996 503.252 481.996 500.372 481.996 498.068 484.3 498.068 487.107 498.068 489.916 500.372 492.219 503.252 492.219 506.061 492.219 508.364 489.915 508.364 487.107 Z" fill="#ffb5cc" fill-opacity="1" stroke="none"/>
 <path id="Path-124" d="M503.252 487.107 L507.86 487.107 C507.86 484.587 505.772 482.5 503.252 482.5 500.66 482.5 498.572 484.588 498.572 487.107 498.572 489.628 500.66 491.715 503.252 491.715 505.773 491.715 507.86 489.627 507.86 487.107 Z" fill="#ffb7ce" fill-opacity="1" stroke="none"/>
 <path id="Path-125" d="M503.252 487.107 L507.356 487.107 C507.356 484.804 505.484 483.003 503.252 483.003 500.948 483.003 499.076 484.804 499.076 487.107 499.076 489.339 500.948 491.211 503.252 491.211 505.484 491.211 507.356 489.339 507.356 487.107 Z" fill="#ffb9d1" fill-opacity="1" stroke="none"/>
 <path id="Path-126" d="M503.252 487.107 L506.779 487.107 C506.779 485.091 505.195 483.507 503.252 483.507 501.235 483.507 499.652 485.091 499.652 487.107 499.652 489.051 501.235 490.708 503.252 490.708 505.195 490.708 506.779 489.052 506.779 487.107 Z" fill="#ffbbd3" fill-opacity="1" stroke="none"/>
 <path id="Path-127" d="M503.252 487.107 L506.275 487.107 C506.275 485.379 504.908 484.011 503.252 484.011 501.523 484.011 500.156 485.379 500.156 487.107 500.156 488.836 501.523 490.204 503.252 490.204 504.908 490.204 506.275 488.836 506.275 487.107 Z" fill="#ffbdd5" fill-opacity="1" stroke="none"/>
 <path id="Path-128" d="M503.252 487.107 L505.773 487.107 C505.773 485.668 504.621 484.515 503.252 484.515 501.813 484.515 500.66 485.667 500.66 487.107 500.66 488.547 501.812 489.7 503.252 489.7 504.62 489.7 505.773 488.548 505.773 487.107 Z" fill="#ffbfd8" fill-opacity="1" stroke="none"/>
 <path id="Path-129" d="M503.252 487.107 L505.269 487.107 C505.269 485.956 504.332 485.019 503.252 485.019 502.1 485.019 501.164 485.956 501.164 487.107 501.164 488.259 502.1 489.124 503.252 489.124 504.332 489.124 505.269 488.26 505.269 487.107 Z" fill="#ffc2da" fill-opacity="1" stroke="none"/>
 <path id="Path-130" d="M503.252 487.107 L504.765 487.107 C504.765 486.244 504.044 485.596 503.252 485.596 502.389 485.596 501.668 486.243 501.668 487.107 501.668 487.972 502.389 488.62 503.252 488.62 504.044 488.62 504.765 487.973 504.765 487.107 Z" fill="#ffc4dc" fill-opacity="1" stroke="none"/>
 <path id="Path-131" d="M503.252 487.107 L504.26 487.107 C504.26 486.532 503.756 486.099 503.252 486.099 502.676 486.099 502.172 486.532 502.172 487.107 502.172 487.684 502.676 488.116 503.252 488.116 503.756 488.116 504.26 487.684 504.26 487.107 Z" fill="#ffc6df" fill-opacity="1" stroke="none"/>
 <path id="Path-132" d="M503.252 487.107 L503.756 487.107 C503.756 486.819 503.468 486.603 503.252 486.603 502.964 486.603 502.676 486.819 502.676 487.107 502.676 487.396 502.964 487.611 503.252 487.611 503.468 487.611 503.756 487.396 503.756 487.107 Z" fill="#ffc8e1" fill-opacity="1" stroke="none"/>
 <path id="Path-133" d="M645.884 506.188 C644.948 505.612 644.948 505.612 644.805 504.533 644.516 504.533 644.3 504.533 644.012 504.533 L644.012 505.325 C643.436 505.108 642.788 504.893 642.212 504.749 642.428 504.316 642.716 503.885 642.932 503.453 642.716 503.598 642.428 503.669 642.212 503.812 L642.212 508.493 C642.86 508.709 643.58 508.925 644.372 509.14 645.812 508.996 647.324 508.924 648.836 508.781 650.779 507.701 651.716 505.829 651.788 503.957 L651.788 503.093 C651.643 500.285 649.844 497.333 647.324 496.109 647.324 495.894 647.324 495.605 647.324 495.39 645.595 494.742 643.868 494.165 642.212 493.733 L642.212 496.398 C642.357 496.469 642.572 496.469 642.716 496.469 642.644 496.757 642.572 496.974 642.572 497.189 643.939 497.91 645.235 498.558 646.604 499.206 648.403 501.798 648.403 501.798 649.124 502.014 648.98 503.094 648.765 504.174 648.62 505.326 646.964 506.188 646.964 506.188 645.884 506.188 Z M642.212 503.812 C641.853 503.957 641.565 504.1 641.275 504.172 641.06 503.452 640.916 502.732 640.7 502.012 640.484 502.012 640.268 502.012 639.98 502.012 638.828 499.924 638.755 498.916 636.74 498.34 636.74 498.052 636.74 497.836 636.74 497.548 636.452 497.548 636.235 497.548 635.948 497.548 635.948 497.332 635.948 497.044 635.948 496.828 635.731 496.828 635.443 496.828 635.228 496.828 635.228 496.468 635.228 496.107 635.228 495.748 637.532 495.964 639.908 496.181 642.211 496.396 L642.211 493.731 C637.675 492.507 633.283 492.147 628.099 493.876 628.171 495.027 628.244 496.107 628.315 497.188 632.779 498.196 634.939 498.34 636.74 503.092 L637.46 503.092 C637.964 506.332 639.62 507.628 642.212 508.492 Z" fill="#b2b2b2" fill-opacity="1" stroke="none"/>
 <path id="Path-134" d="M422.972 454.78 C425.636 454.708 428.444 454.924 431.468 455.139 433.052 456.723 433.412 456.723 433.7 459.027 434.996 459.244 436.58 460.252 437.516 461.187 437.444 461.62 437.372 462.051 437.372 462.484 435.5 462.484 435.5 462.484 434.42 461.764 429.524 462.195 426.356 465.147 422.972 467.523 L422.972 463.78 C425.78 461.98 429.596 459.532 432.98 458.452 430.964 456.435 426.716 456.435 422.972 456.796 Z M415.7 470.188 C412.028 469.685 410.516 467.597 410.372 465.077 L410.372 463.997 C410.516 462.125 411.236 460.108 412.244 458.309 415.7 455.788 419.228 454.924 422.972 454.781 L422.972 456.797 C421.028 456.941 419.228 457.229 417.932 457.373 414.692 459.316 411.38 463.133 413.9 466.877 416.492 467.885 418.004 466.877 420.668 465.293 421.316 464.861 422.108 464.357 422.972 463.781 L422.972 467.524 C420.812 468.964 418.58 470.188 415.7 470.188 Z" fill="#b2b2b2" fill-opacity="1" stroke="none"/>
 <path id="Path-135" d="M627.523 428.356 C626.443 428.284 625.292 428.211 624.211 428.139 624.211 427.78 624.211 427.419 624.211 427.06 631.051 425.98 637.892 424.828 644.804 423.748 L644.804 424.468 C638.973 426.916 633.716 427.924 627.523 428.356 Z" fill="#b2b2b2" fill-opacity="1" stroke="none"/>
 <path id="Path-136" d="M627.164 418.42 C626.948 418.348 626.731 418.276 626.443 418.204 626.588 417.844 626.66 417.412 626.804 416.98 627.883 416.547 631.915 416.187 632.275 415.828 642.356 413.74 650.275 408.916 659.42 405.027 659.42 404.74 659.42 404.523 659.42 404.235 L660.572 404.235 C657.764 409.78 640.195 415.9 634.508 417.339 632.061 417.7 629.611 417.988 627.164 418.42 Z" fill="#b2b2b2" fill-opacity="1" stroke="none"/>
 <path id="Path-137" d="M531.477 409.996 C531.26 403.227 540.189 395.668 546.524 394.516 547.964 392.788 549.045 392.428 548.756 390.124 537.164 384.652 531.62 395.452 530.036 405.027 529.676 405.027 529.244 405.027 528.884 405.027 529.1 403.299 529.244 401.572 529.46 399.843 533.42 388.9 536.731 386.091 547.964 386.091 553.364 389.691 552.284 391.923 548.901 396.603 542.348 399.627 534.285 402.58 532.196 410.139 531.98 410.068 531.765 409.996 531.477 409.996 Z" fill="#b2b2b2" fill-opacity="1" stroke="none"/>
 <path id="Path-138" d="M277.028 424.54 C282.572 422.956 288.836 425.116 294.02 426.124 297.332 427.204 299.564 428.14 303.164 429.652 309.788 432.388 326.348 447.652 328.076 450.244 328.868 451.396 336.716 460.54 337.508 462.556 340.316 469.467 365.876 481.492 368.036 482.499 370.268 483.507 375.884 487.106 377.252 488.403 379.916 491.067 382.58 494.595 376.892 500.355 375.02 500.355 375.02 500.355 370.988 499.418 370.484 489.626 366.02 490.346 358.172 490.994 358.676 488.042 358.46 487.105 357.812 484.37 354.356 482.641 346.94 481.634 344.276 484.514 342.404 485.234 342.404 485.234 340.172 485.234 337.004 481.203 333.26 480.842 328.508 480.123 322.028 478.035 313.82 476.234 307.916 474.291 302.66 472.563 277.676 459.531 273.5 453.915 272.564 452.619 268.172 448.515 267.596 447.651 260.828 436.996 264.932 427.996 277.028 424.54 Z" fill="#ffffff" fill-opacity="1" stroke="none"/>
 <path id="Path-139" d="M311.012 475.3 C311.948 464.932 311.3 463.204 318.212 456.653 320.372 454.709 325.556 459.82 324.476 461.837 321.884 466.517 318.644 465.797 319.58 477.533 314.396 476.523 311.012 475.3 311.012 475.3 Z" fill="#ffe8f2" fill-opacity="1" stroke="none"/>
 <path id="Path-140" d="M322.892 478.54 C322.82 472.708 323.972 469.756 329.444 465.292 331.172 463.996 334.7 468.101 333.764 469.54 331.532 472.852 329.156 471.628 329.156 480.34 325.34 479.26 322.892 478.54 322.892 478.54 Z" fill="#ffe8f2" fill-opacity="1" stroke="none"/>
 <path id="Path-141" d="M317.204 502.156 C317.636 502.227 318.068 502.372 318.428 502.443 320.012 504.46 324.764 509.572 326.852 513.748 323.468 513.244 320.372 512.452 317.204 511.588 L317.204 513.893 C322.028 514.901 323.108 515.765 329.084 517.061 330.236 518.716 342.98 533.188 342.98 535.061 341.324 535.205 334.34 533.405 329.948 532.829 L329.948 533.981 C333.764 535.205 347.012 537.077 348.236 540.533 L349.028 540.533 C349.388 541.469 350.252 542.045 350.828 543.485 L351.908 543.485 C351.476 541.397 348.812 540.604 348.596 538.373 351.764 538.228 355.004 538.085 358.172 538.013 358.172 537.725 358.172 537.509 358.172 537.221 354.5 537.005 350.828 536.717 347.156 536.501 347.156 535.205 344.492 532.757 343.484 532.108 341.252 527.212 337.22 522.533 334.34 517.924 333.98 517.348 338.876 518.644 338.876 517.924 338.3 517.708 333.332 515.693 332.756 514.973 330.452 512.236 327.14 506.477 325.916 504.389 328.22 505.325 328.652 504.46 332.972 505.108 330.236 503.38 325.844 502.732 323.18 501.796 323.18 501.436 319.94 496.252 319.652 496.108 319.364 494.524 318.356 492.581 317.204 490.636 Z M313.46 510.58 C311.516 507.124 308.06 502.66 307.556 499.06 310.004 499.564 314.252 501.291 317.204 502.156 L317.204 490.635 C315.476 487.827 313.388 484.947 312.524 483.219 311.804 481.852 310.94 480.268 310.364 478.611 309.068 474.58 304.388 464.86 303.308 463.635 302.444 462.556 301.076 460.972 299.492 463.203 297.98 465.434 304.1 475.442 305.9 479.186 308.636 484.947 313.244 493.155 315.62 498.699 313.172 498.411 306.908 496.323 304.82 495.026 301.724 489.267 296.756 476.522 295.892 474.434 294.956 472.346 294.668 472.706 293.732 469.971 292.796 467.162 292.292 466.298 291.932 462.699 291.572 462.699 289.988 462.699 289.628 462.699 289.772 465.291 291.212 469.899 291.86 472.419 293.084 476.955 299.708 488.187 301.724 493.731 296.54 492.435 292.724 490.996 288.476 488.187 283.724 485.811 278.972 484.227 274.58 481.419 274.508 482.139 274.436 482.859 274.364 483.579 274.652 483.723 275.012 483.867 275.3 484.011 L275.3 484.731 C284.372 488.187 292.94 495.171 303.524 496.684 305.396 499.707 307.988 504.747 311.084 509.356 308.132 509.788 302.012 507.051 299.132 506.404 299.204 506.908 299.276 507.34 299.348 507.843 300.068 507.988 300.932 508.06 301.724 508.203 301.94 508.635 302.228 509.067 302.444 509.499 309.428 511.371 308.636 511.227 311.948 511.804 312.164 512.379 313.892 515.187 315.116 515.908 314.9 513.027 315.26 514.54 315.26 513.532 315.98 513.676 316.628 513.819 317.204 513.892 L317.204 511.587 C315.98 511.228 314.684 510.868 313.46 510.58 Z" fill="#b2b2b2" fill-opacity="1" stroke="none"/>
 <path id="Path-142" d="M265.724 439.876 C264.932 429.939 277.82 423.46 281.636 425.548 285.452 427.636 266.372 447.939 265.724 439.876 Z" fill="#ccccff" fill-opacity="1" stroke="none"/>
 <path id="8" d="M346.986 295.6 C348.112 300.118 348.23 304.55 347.339 308.896 346.448 313.242 344.566 317.273 341.694 320.989 338.821 324.704 335.008 328.004 330.253 330.889 325.499 333.774 319.804 336.044 313.168 337.698 306.109 339.458 299.718 340.19 293.995 339.892 288.272 339.594 283.37 338.479 279.29 336.548 275.256 334.604 271.97 331.949 269.431 328.583 266.892 325.217 265.101 321.44 264.056 317.252 262.554 311.228 262.964 305.802 265.284 300.974 267.605 296.147 271.583 291.606 277.221 287.351 L277.115 286.927 C270.199 285.453 264.984 282.879 261.469 279.206 257.954 275.534 255.539 271.062 254.225 265.791 253.263 261.932 253.206 258.097 254.056 254.286 254.905 250.476 256.69 246.806 259.409 243.279 261.976 239.94 265.527 236.892 270.064 234.137 274.601 231.381 279.928 229.24 286.046 227.715 292.541 226.096 298.373 225.379 303.543 225.565 308.713 225.75 313.132 226.585 316.802 228.07 320.577 229.578 323.719 231.756 326.229 234.604 328.739 237.453 330.469 240.783 331.419 244.595 332.663 249.584 332.34 254.451 330.449 259.196 328.557 263.941 324.964 268.424 319.667 272.644 L319.773 273.067 C327.442 274.155 333.496 276.582 337.934 280.349 342.373 284.116 345.39 289.2 346.986 295.6 Z M306.639 254.073 C305.747 250.496 303.858 247.93 300.971 246.376 298.084 244.821 294.617 244.548 290.57 245.557 286.711 246.52 283.833 248.262 281.938 250.784 280.042 253.306 279.446 255.979 280.15 258.802 280.855 261.626 282.138 263.718 284.002 265.078 285.866 266.438 288.485 267.472 291.861 268.18 293.343 268.51 295.078 268.802 297.066 269.056 299.054 269.311 301.695 269.627 304.988 270.005 306.225 267.148 306.989 264.495 307.278 262.049 307.568 259.602 307.355 256.943 306.639 254.073 Z M321.219 303.224 C320.362 299.789 318.975 297.335 317.059 295.864 315.142 294.392 311.496 293.102 306.121 291.992 304.592 291.674 302.422 291.34 299.611 290.991 296.799 290.642 294.3 290.291 292.112 289.937 290.734 292.23 289.665 294.908 288.904 297.972 288.144 301.036 288.168 304.192 288.978 307.439 290.198 312.333 292.725 315.852 296.559 317.996 300.392 320.139 304.85 320.577 309.933 319.31 311.298 318.97 312.807 318.356 314.46 317.469 316.114 316.582 317.505 315.497 318.635 314.216 319.871 312.758 320.767 311.185 321.32 309.497 321.874 307.81 321.84 305.719 321.219 303.224 Z" fill="#ff6a78" fill-opacity="1" stroke="#000000" stroke-width="3" stroke-opacity="1" stroke-linejoin="round" stroke-linecap="round"/>
 <path id="11" d="M728.153 321.705 L671.195 316.722 672.512 301.672 690.687 303.262 694.673 257.707 676.497 256.117 677.728 242.051 C680.39 242.284 683.049 242.341 685.704 242.224 688.358 242.106 690.51 241.73 692.16 241.097 694.093 240.333 695.639 239.214 696.799 237.741 697.958 236.267 698.716 234.38 699.073 232.078 L717.944 233.729 711.699 305.1 729.47 306.655 Z M653.439 315.168 L596.48 310.185 597.797 295.135 615.973 296.725 619.958 251.17 601.783 249.58 603.013 235.514 C605.676 235.747 608.334 235.805 610.989 235.687 613.643 235.569 615.795 235.194 617.445 234.56 619.379 233.796 620.925 232.677 622.084 231.204 623.244 229.731 624.002 227.843 624.359 225.541 L643.229 227.192 636.985 298.563 654.755 300.118 Z" fill="#ff6a78" fill-opacity="1" stroke="#000000" stroke-width="3" stroke-opacity="1" stroke-linejoin="round" stroke-linecap="round"/>
 <path id="16" d="M371.028 201.898 L361.116 190.496 374.886 178.527 344.886 144.016 331.116 155.984 321.853 145.328 C323.87 143.574 325.757 141.702 327.517 139.711 329.276 137.72 330.502 135.912 331.192 134.285 331.986 132.364 332.254 130.473 331.999 128.615 331.744 126.758 330.915 124.903 329.507 123.047 L343.802 110.619 390.806 164.689 404.269 152.986 414.179 164.389 Z M428.804 144.68 C428.067 144.682 427.328 144.652 426.591 144.59 421.92 144.236 417.201 142.643 412.429 139.81 407.657 136.978 402.869 132.799 398.065 127.273 393.084 121.543 389.277 115.923 386.642 110.412 384.007 104.901 382.592 99.227 382.396 93.392 382.235 87.835 383.509 82.274 386.218 76.711 388.927 71.148 393.22 65.813 399.097 60.705 401.231 58.85 403.492 57.127 405.882 55.537 408.272 53.947 409.938 52.895 410.88 52.385 L422.05 65.234 420.866 66.264 C419.776 66.544 418.143 67.205 415.97 68.248 413.796 69.29 411.584 70.791 409.333 72.748 404.217 77.195 401.44 81.97 401.001 87.074 400.562 92.178 402.205 97.524 405.933 103.111 406.872 99.882 408.091 96.899 409.587 94.162 411.083 91.425 413.218 88.848 415.995 86.433 418.334 84.4 420.808 82.804 423.415 81.641 426.023 80.477 428.652 79.795 431.302 79.596 435.052 79.364 438.811 80.074 442.581 81.724 446.351 83.375 450.142 86.392 453.954 90.777 459.926 97.648 462.661 105.19 462.155 113.406 461.649 121.622 457.594 129.033 449.993 135.641 446.193 138.944 442.325 141.344 438.39 142.84 435.192 144.055 431.998 144.669 428.804 144.68 Z M434.081 127.029 C435.009 127.033 435.889 126.895 436.724 126.619 438.059 126.177 439.267 125.487 440.349 124.547 441.226 123.784 441.986 122.738 442.628 121.41 443.27 120.082 443.56 118.674 443.499 117.187 443.432 115.398 443.085 113.685 442.458 112.049 441.831 110.412 440.425 108.338 438.239 105.824 436.409 103.719 434.636 102.208 432.915 101.291 431.194 100.374 429.496 99.927 427.819 99.947 426.143 99.967 424.556 100.357 423.062 101.117 421.567 101.877 420.133 102.854 418.759 104.049 417.619 105.04 416.569 106.209 415.61 107.557 414.651 108.904 413.836 110.254 413.165 111.607 413.419 111.9 413.823 112.394 414.378 113.092 414.933 113.79 415.656 114.65 416.546 115.674 419.799 119.416 422.746 122.141 425.386 123.849 428.026 125.558 430.352 126.566 432.362 126.871 432.952 126.974 433.525 127.027 434.081 127.029 Z" fill="#ff6a78" fill-opacity="1" stroke="#000000" stroke-width="3" stroke-opacity="1" stroke-linejoin="round" stroke-linecap="round"/>
 <path id="17" d="M578.252 209.346 L562.42 202.626 513.004 141.629 522.45 119.379 571.963 182.374 588.082 144.399 603.112 150.778 Z M615.489 122.213 L549.541 94.221 542.571 110.641 528.664 104.737 551.004 52.108 564.911 58.01 557.782 74.805 599.875 92.672 607.004 75.878 620.002 81.395 C618.958 83.855 618.082 86.365 617.373 88.926 616.665 91.487 616.357 93.65 616.45 95.415 616.579 97.489 617.164 99.306 618.207 100.864 619.25 102.422 620.812 103.727 622.891 104.778 Z" fill="#ff6a78" fill-opacity="1" stroke="#000000" stroke-width="3" stroke-opacity="1" stroke-linejoin="round" stroke-linecap="round"/>
 <path id="Path-143" d="M478.74 148.396 C478.956 146.956 479.315 146.524 480.756 141.052 483.42 133.852 484.428 127.228 485.004 119.74 L486.084 119.74 C486.229 129.748 483.492 139.324 479.46 148.396 479.244 148.396 479.027 148.396 478.74 148.396 Z" fill="#cccccc" fill-opacity="1" stroke="none"/>
 <path id="Path-144" d="M469.956 135.148 C471.54 118.372 472.332 103.324 471.252 86.692 471.756 86.62 472.332 86.548 472.908 86.476 476.435 101.74 474.996 120.028 470.676 135.148 470.46 135.148 470.244 135.148 469.956 135.148 Z" fill="#cccccc" fill-opacity="1" stroke="none"/>
 <path id="Path-145" d="M701.252 356.716 C698.156 355.708 695.132 354.7 692.107 353.765 685.412 350.453 685.412 350.453 684.332 350.309 684.332 350.02 684.332 349.805 684.332 349.516 682.893 349.012 682.172 348.292 681.092 348.077 681.092 347.861 681.092 347.573 681.092 347.357 679.004 346.277 678.861 345.557 678.14 345.557 678.14 345.052 678.14 344.548 678.14 344.044 679.869 344.116 683.612 346.492 684.332 348.076 L685.412 348.076 685.412 348.868 C691.532 350.597 697.147 354.484 703.772 356.139 L703.772 356.931 C702.908 356.86 702.116 356.788 701.252 356.716 Z" fill="#000000" fill-opacity="1" stroke="none"/>
 <path id="Path-146" d="M601.532 337.636 C601.099 337.565 600.812 337.492 600.452 337.42 600.452 337.204 600.452 336.988 600.452 336.7 615.428 336.124 615.428 336.124 618.019 335.62 L618.019 336.34 C611.973 337.204 607.724 337.636 601.532 337.636 Z" fill="#000000" fill-opacity="1" stroke="none"/>
 <path id="Path-147" d="M593.828 327.34 C593.18 327.052 592.532 326.836 591.956 326.62 591.812 326.26 591.74 325.973 591.596 325.684 603.044 324.82 613.916 322.372 625.365 320.931 623.853 324.964 599.443 327.34 593.828 327.34 Z" fill="#000000" fill-opacity="1" stroke="none"/>
 <path id="Path-148" d="M707.805 325.324 C707.805 325.036 707.805 324.82 707.805 324.603 707.372 324.459 706.868 324.316 706.365 324.244 706.22 323.74 706.077 323.308 706.005 322.948 705.646 322.876 705.213 322.804 704.854 322.731 704.637 322.011 704.349 321.292 704.133 320.5 L705.285 320.5 C705.357 320.716 708.453 323.812 708.741 323.812 708.38 324.316 708.092 324.82 707.805 325.324 Z" fill="#ccccff" fill-opacity="1" stroke="none"/>
 <path id="Path-149" d="M690.956 267.508 C689.876 266.788 689.3 265.852 688.435 265.492 688.435 265.132 688.435 264.772 688.435 264.412 689.011 264.556 689.587 264.628 690.235 264.772 L690.235 265.492 C691.315 266.068 691.315 266.068 692.252 265.852 692.252 265.636 692.324 265.348 692.397 265.132 692.18 265.132 691.964 265.132 691.676 265.132 691.676 264.7 691.676 264.196 691.676 263.692 692.252 263.764 692.901 263.908 693.548 264.052 693.404 265.06 693.26 266.14 693.189 267.148 692.396 267.292 691.676 267.364 690.956 267.508 Z" fill="#000000" fill-opacity="1" stroke="none"/>
 <path id="Path-150" d="M644.805 251.956 C645.236 249.292 649.989 239.5 652.653 236.404 654.381 236.332 653.516 235.828 656.901 236.332 656.973 236.62 657.117 236.908 657.26 237.268 653.372 240.004 648.116 247.42 645.884 251.74 645.523 251.812 645.164 251.884 644.805 251.956 Z" fill="#000000" fill-opacity="1" stroke="none"/>
 <path id="Path-151" d="M568.916 224.74 C568.916 224.524 568.916 224.236 568.916 224.02 577.988 221.212 587.132 221.14 596.348 217.18 598.22 217.18 598.22 217.18 604.124 215.956 603.691 216.604 603.332 217.252 602.973 217.972 591.596 220.204 580.292 222.94 568.916 224.74 Z" fill="#cccccc" fill-opacity="1" stroke="none"/>
 <path id="Path-152" d="M509.508 228.196 C509.508 227.98 509.508 227.692 509.508 227.476 525.565 223.732 542.052 220.924 558.252 217.396 568.548 214.444 572.508 213.004 575.819 212.212 578.412 211.132 578.412 211.132 580.212 211.132 580.788 211.708 580.788 211.708 580.644 212.644 557.819 220.132 533.269 226.18 509.508 228.196 Z" fill="#cccccc" fill-opacity="1" stroke="none"/>
 <path id="Path-153" d="M567.396 198.46 C567.396 198.1 567.396 197.74 567.396 197.38 577.188 193.636 588.347 192.124 598.572 189.676 598.427 189.964 598.284 190.252 598.212 190.612 590.508 192.484 582.805 194.356 575.1 195.724 569.988 197.524 569.628 197.956 567.396 198.46 Z" fill="#cccccc" fill-opacity="1" stroke="none"/>
 <path id="Path-154" d="M651.859 177.412 C653.228 176.044 682.46 163.516 684.836 160.132 683.324 164.236 669.716 170.212 665.397 172.084 661.076 173.884 655.532 176.188 651.859 177.412 Z" fill="#cccccc" fill-opacity="1" stroke="none"/>
 <path id="Path-155" d="M628.668 178.66 C629.172 174.196 629.172 174.196 629.748 173.692 630.18 173.764 630.611 173.836 630.973 173.908 630.828 176.284 631.332 177.868 628.668 178.66 Z" fill="#000000" fill-opacity="1" stroke="none"/>
 <path id="Path-156" d="M494.819 157.708 C493.019 154.108 502.523 145.684 505.836 143.524 506.34 142.66 506.34 142.66 507.275 142.3 507.708 143.956 505.836 145.54 504.179 146.692 500.652 149.14 497.844 156.844 494.819 157.708 Z" fill="#ffffff" fill-opacity="1" stroke="none"/>
 <path id="Path-157" d="M624.204 124.3 C624.348 124.012 624.42 123.652 624.564 123.364 634.068 121.06 644.003 113.427 653.939 112.492 L653.939 113.284 C643.716 115.948 634.068 120.556 624.204 124.3 Z" fill="#cccccc" fill-opacity="1" stroke="none"/>
</svg>
